<?xml version="1.0" encoding="UTF-8" standalone="no"?><!DOCTYPE svg PUBLIC "-//W3C//DTD SVG 1.1//EN" "http://www.w3.org/Graphics/SVG/1.1/DTD/svg11.dtd"><svg width="100%" height="100%" viewBox="0 0 7790 88" version="1.1" xmlns="http://www.w3.org/2000/svg" xmlns:xlink="http://www.w3.org/1999/xlink" xml:space="preserve" xmlns:serif="http://www.serif.com/" style="fill-rule:evenodd;clip-rule:evenodd;stroke-linejoin:round;stroke-miterlimit:2;"><g><circle cx="43.84" cy="43.84" r="43.84" style="fill:#fff;"/><circle cx="2053.33" cy="43.84" r="43.84" style="fill:#fff;"/><circle cx="1048.73" cy="43.84" r="43.84" style="fill:#fff;"/><circle cx="3058.22" cy="43.84" r="43.84" style="fill:#fff;"/><circle cx="545.943" cy="43.84" r="43.84" style="fill:#fff;"/><circle cx="2555.44" cy="43.84" r="43.84" style="fill:#fff;"/><circle cx="1550.83" cy="43.84" r="43.84" style="fill:#fff;"/><circle cx="3560.32" cy="43.84" r="43.84" style="fill:#fff;"/><circle cx="210.932" cy="43.84" r="43.84" style="fill:#fff;"/><circle cx="2220.43" cy="43.84" r="43.84" style="fill:#fff;"/><circle cx="1215.82" cy="43.84" r="43.84" style="fill:#fff;"/><circle cx="3225.31" cy="43.84" r="43.84" style="fill:#fff;"/><circle cx="713.035" cy="43.84" r="43.84" style="fill:#fff;"/><circle cx="2722.53" cy="43.84" r="43.84" style="fill:#fff;"/><circle cx="1717.92" cy="43.84" r="43.84" style="fill:#fff;"/><circle cx="3727.41" cy="43.84" r="43.84" style="fill:#fff;"/><circle cx="378.413" cy="43.84" r="43.84" style="fill:#fff;"/><circle cx="2387.91" cy="43.84" r="43.84" style="fill:#fff;"/><circle cx="1383.3" cy="43.84" r="43.84" style="fill:#fff;"/><circle cx="3392.79" cy="43.84" r="43.84" style="fill:#fff;"/><circle cx="880.516" cy="43.84" r="43.84" style="fill:#fff;"/><circle cx="2890.01" cy="43.84" r="43.84" style="fill:#fff;"/><circle cx="1885.4" cy="43.84" r="43.84" style="fill:#fff;"/><circle cx="3894.9" cy="43.84" r="43.84" style="fill:#fff;"/></g><g><circle cx="3894.79" cy="43.84" r="43.84" style="fill:#fff;"/><circle cx="5904.28" cy="43.84" r="43.84" style="fill:#fff;"/><circle cx="4899.68" cy="43.84" r="43.84" style="fill:#fff;"/><circle cx="6909.17" cy="43.84" r="43.84" style="fill:#fff;"/><circle cx="4396.89" cy="43.84" r="43.84" style="fill:#fff;"/><circle cx="6406.39" cy="43.84" r="43.84" style="fill:#fff;"/><circle cx="5401.78" cy="43.84" r="43.84" style="fill:#fff;"/><circle cx="7411.27" cy="43.84" r="43.84" style="fill:#fff;"/><circle cx="4061.88" cy="43.84" r="43.84" style="fill:#fff;"/><circle cx="6071.38" cy="43.84" r="43.84" style="fill:#fff;"/><circle cx="5066.77" cy="43.84" r="43.84" style="fill:#fff;"/><circle cx="7076.26" cy="43.84" r="43.84" style="fill:#fff;"/><circle cx="4563.99" cy="43.84" r="43.84" style="fill:#fff;"/><circle cx="6573.48" cy="43.84" r="43.84" style="fill:#fff;"/><circle cx="5568.87" cy="43.84" r="43.84" style="fill:#fff;"/><circle cx="7578.37" cy="43.84" r="43.84" style="fill:#fff;"/><circle cx="4229.36" cy="43.84" r="43.84" style="fill:#fff;"/><circle cx="6238.86" cy="43.84" r="43.84" style="fill:#fff;"/><circle cx="5234.25" cy="43.84" r="43.84" style="fill:#fff;"/><circle cx="7243.74" cy="43.84" r="43.84" style="fill:#fff;"/><circle cx="4731.47" cy="43.84" r="43.84" style="fill:#fff;"/><circle cx="6740.96" cy="43.84" r="43.84" style="fill:#fff;"/><circle cx="5736.35" cy="43.84" r="43.84" style="fill:#fff;"/><circle cx="7745.85" cy="43.84" r="43.84" style="fill:#fff;"/></g></svg>