<?xml version="1.0" encoding="UTF-8" standalone="no"?>
<!DOCTYPE svg PUBLIC "-//W3C//DTD SVG 1.1//EN" "http://www.w3.org/Graphics/SVG/1.1/DTD/svg11.dtd">
<svg width="100%" height="100%" viewBox="0 0 659 341" version="1.1" xmlns="http://www.w3.org/2000/svg" xmlns:xlink="http://www.w3.org/1999/xlink" xml:space="preserve" xmlns:serif="http://www.serif.com/" style="fill-rule:evenodd;clip-rule:evenodd;stroke-linejoin:round;stroke-miterlimit:2;">
    <g transform="matrix(22.0229,-8.65613,8.65613,22.0229,-30781.3,-12281)">
        <path d="M1041.85,978.063C1041.81,978.212 1041.78,978.442 1041.78,978.755L1040.2,978.755C1040.22,978.094 1040.28,977.638 1040.38,977.386C1040.49,977.134 1040.75,976.844 1041.17,976.516L1041.6,976.182C1041.74,976.077 1041.85,975.962 1041.94,975.837C1042.09,975.622 1042.17,975.385 1042.17,975.128C1042.17,974.831 1042.08,974.56 1041.91,974.316C1041.74,974.072 1041.42,973.95 1040.96,973.95C1040.51,973.95 1040.18,974.1 1039.99,974.401C1039.81,974.702 1039.71,975.014 1039.71,975.339L1038.02,975.339C1038.06,974.225 1038.45,973.436 1039.18,972.971C1039.64,972.675 1040.21,972.526 1040.88,972.526C1041.76,972.526 1042.5,972.737 1043.08,973.159C1043.67,973.581 1043.96,974.206 1043.96,975.034C1043.96,975.542 1043.83,975.969 1043.58,976.317C1043.43,976.528 1043.14,976.798 1042.72,977.126L1042.31,977.448C1042.08,977.624 1041.93,977.829 1041.85,978.063ZM1041.9,981.251L1040.15,981.251L1040.15,979.557L1041.9,979.557L1041.9,981.251Z" style="fill:rgb(255,155,69);fill-rule:nonzero;"/>
    </g>
    <g transform="matrix(22.0229,-8.65613,8.65613,22.0229,-30981.6,-12400.4)">
        <path d="M1041.85,978.063C1041.81,978.212 1041.78,978.442 1041.78,978.755L1040.2,978.755C1040.22,978.094 1040.28,977.638 1040.38,977.386C1040.49,977.134 1040.75,976.844 1041.17,976.516L1041.6,976.182C1041.74,976.077 1041.85,975.962 1041.94,975.837C1042.09,975.622 1042.17,975.385 1042.17,975.128C1042.17,974.831 1042.08,974.56 1041.91,974.316C1041.74,974.072 1041.42,973.95 1040.96,973.95C1040.51,973.95 1040.18,974.1 1039.99,974.401C1039.81,974.702 1039.71,975.014 1039.71,975.339L1038.02,975.339C1038.06,974.225 1038.45,973.436 1039.18,972.971C1039.64,972.675 1040.21,972.526 1040.88,972.526C1041.76,972.526 1042.5,972.737 1043.08,973.159C1043.67,973.581 1043.96,974.206 1043.96,975.034C1043.96,975.542 1043.83,975.969 1043.58,976.317C1043.43,976.528 1043.14,976.798 1042.72,977.126L1042.31,977.448C1042.08,977.624 1041.93,977.829 1041.85,978.063ZM1041.9,981.251L1040.15,981.251L1040.15,979.557L1041.9,979.557L1041.9,981.251Z" style="fill:rgb(255,155,69);fill-rule:nonzero;"/>
    </g>
    <g transform="matrix(22.0229,-8.65613,8.65613,22.0229,-31097.5,-12265.9)">
        <path d="M1041.85,978.063C1041.81,978.212 1041.78,978.442 1041.78,978.755L1040.2,978.755C1040.22,978.094 1040.28,977.638 1040.38,977.386C1040.49,977.134 1040.75,976.844 1041.17,976.516L1041.6,976.182C1041.74,976.077 1041.85,975.962 1041.94,975.837C1042.09,975.622 1042.17,975.385 1042.17,975.128C1042.17,974.831 1042.08,974.56 1041.91,974.316C1041.74,974.072 1041.42,973.95 1040.96,973.95C1040.51,973.95 1040.18,974.1 1039.99,974.401C1039.81,974.702 1039.71,975.014 1039.71,975.339L1038.02,975.339C1038.06,974.225 1038.45,973.436 1039.18,972.971C1039.64,972.675 1040.21,972.526 1040.88,972.526C1041.76,972.526 1042.5,972.737 1043.08,973.159C1043.67,973.581 1043.96,974.206 1043.96,975.034C1043.96,975.542 1043.83,975.969 1043.58,976.317C1043.43,976.528 1043.14,976.798 1042.72,977.126L1042.31,977.448C1042.08,977.624 1041.93,977.829 1041.85,978.063ZM1041.9,981.251L1040.15,981.251L1040.15,979.557L1041.9,979.557L1041.9,981.251Z" style="fill:rgb(255,155,69);fill-rule:nonzero;"/>
    </g>
    <g transform="matrix(22.0229,-8.65613,8.65613,22.0229,-31297.4,-12265.9)">
        <path d="M1041.85,978.063C1041.81,978.212 1041.78,978.442 1041.78,978.755L1040.2,978.755C1040.22,978.094 1040.28,977.638 1040.38,977.386C1040.49,977.134 1040.75,976.844 1041.17,976.516L1041.6,976.182C1041.74,976.077 1041.85,975.962 1041.94,975.837C1042.09,975.622 1042.17,975.385 1042.17,975.128C1042.17,974.831 1042.08,974.56 1041.91,974.316C1041.74,974.072 1041.42,973.95 1040.96,973.95C1040.51,973.95 1040.18,974.1 1039.99,974.401C1039.81,974.702 1039.71,975.014 1039.71,975.339L1038.02,975.339C1038.06,974.225 1038.45,973.436 1039.18,972.971C1039.64,972.675 1040.21,972.526 1040.88,972.526C1041.76,972.526 1042.5,972.737 1043.08,973.159C1043.67,973.581 1043.96,974.206 1043.96,975.034C1043.96,975.542 1043.83,975.969 1043.58,976.317C1043.43,976.528 1043.14,976.798 1042.72,977.126L1042.31,977.448C1042.08,977.624 1041.93,977.829 1041.85,978.063ZM1041.9,981.251L1040.15,981.251L1040.15,979.557L1041.9,979.557L1041.9,981.251Z" style="fill:rgb(255,155,69);fill-rule:nonzero;"/>
    </g>
</svg>
